<?xml version="1.0" encoding="UTF-8"?>
<svg id="Layer_1" data-name="Layer 1" xmlns="http://www.w3.org/2000/svg" viewBox="0 0 98.8 98.8">
  <path d="M49.65,39.95c-5.21,0-9.45,4.24-9.45,9.45s4.24,9.45,9.45,9.45,9.45-4.24,9.45-9.45-4.24-9.45-9.45-9.45Z"/>
  <path d="M61.36,25.09h-23.91c-6.81,0-12.35,5.54-12.35,12.35v23.91c0,6.81,5.54,12.35,12.35,12.35h23.91c6.81,0,12.36-5.54,12.36-12.35v-23.91c0-6.81-5.54-12.35-12.36-12.35Zm-11.71,39.06c-8.13,0-14.75-6.62-14.75-14.75s6.62-14.75,14.75-14.75,14.75,6.62,14.75,14.75-6.62,14.75-14.75,14.75Zm15.61-26.98c-1.94,0-3.51-1.57-3.51-3.51s1.57-3.51,3.51-3.51,3.51,1.57,3.51,3.51-1.57,3.51-3.51,3.51Z"/>
  <path d="M49.4,0C22.12,0,0,22.12,0,49.4s22.12,49.4,49.4,49.4,49.4-22.12,49.4-49.4S76.69,0,49.4,0Zm29.94,61.36c0,9.92-8.07,17.99-17.99,17.99h-23.91c-9.92,0-17.99-8.07-17.99-17.99v-23.91c0-9.92,8.07-17.99,17.99-17.99h23.91c9.92,0,17.99,8.07,17.99,17.99v23.91Z"/>
</svg>