<?xml version="1.0" encoding="UTF-8"?>
<svg id="Layer_1" data-name="Layer 1" xmlns="http://www.w3.org/2000/svg" viewBox="0 0 98.74 98.74">
  <path d="M75.51,17.63c-3.2,0-5.79,2.59-5.79,5.79s2.59,5.79,5.79,5.79,5.79-2.59,5.79-5.79-2.59-5.79-5.79-5.79Z"/>
  <path d="M49.78,25.05c-13.41,0-24.32,10.91-24.32,24.32s10.91,24.32,24.32,24.32,24.32-10.91,24.32-24.32-10.91-24.32-24.32-24.32Zm0,39.89c-8.59,0-15.58-6.99-15.58-15.58s6.99-15.58,15.58-15.58,15.58,6.99,15.58,15.58-6.99,15.58-15.58,15.58Z"/>
  <path d="M69.08,98.74H29.66c-16.35,0-29.66-13.31-29.66-29.66V29.66C0,13.3,13.31,0,29.66,0h39.42c16.35,0,29.66,13.3,29.66,29.66v39.42c0,16.35-13.31,29.66-29.66,29.66ZM29.66,9.29c-11.23,0-20.37,9.14-20.37,20.37v39.42c0,11.23,9.14,20.37,20.37,20.37h39.42c11.23,0,20.37-9.14,20.37-20.37V29.66c0-11.23-9.14-20.37-20.37-20.37H29.66Z"/>
</svg>