<?xml version="1.0" encoding="utf-8"?>
<!-- Generator: Adobe Illustrator 27.0.0, SVG Export Plug-In . SVG Version: 6.00 Build 0)  -->
<svg version="1.1" id="Layer_1" xmlns="http://www.w3.org/2000/svg" xmlns:xlink="http://www.w3.org/1999/xlink" x="0px" y="0px"
	 viewBox="0 0 100 100" style="enable-background:new 0 0 100 100;" xml:space="preserve">
<path d="M50,0.6C22.72,0.6,0.6,22.72,0.6,50S22.72,99.4,50,99.4c27.28,0,49.4-22.12,49.4-49.4S77.28,0.6,50,0.6z M73.56,32.72
	c-0.14,2-1.28,9-2.43,16.56c-1.71,10.71-3.57,22.42-3.57,22.42s-0.29,3.28-2.71,3.85c-2.43,0.57-6.43-2-7.14-2.57
	c-0.57-0.43-10.71-6.85-14.42-9.99c-1-0.86-2.14-2.57,0.14-4.57c5.14-4.71,11.28-10.57,14.99-14.28c1.71-1.71,3.43-5.71-3.71-0.86
	c-10.14,7-20.13,13.56-20.13,13.56S32.3,58.28,28.01,57c-4.28-1.28-9.28-3-9.28-3s-3.43-2.14,2.43-4.43c0,0,24.7-10.14,33.27-13.71
	c3.28-1.43,14.42-6,14.42-6S73.99,27.87,73.56,32.72z"/>
</svg>
