<?xml version="1.0" encoding="utf-8"?>
<!-- Generator: Adobe Illustrator 27.0.0, SVG Export Plug-In . SVG Version: 6.00 Build 0)  -->
<svg version="1.1" id="Layer_1" xmlns="http://www.w3.org/2000/svg" xmlns:xlink="http://www.w3.org/1999/xlink" x="0px" y="0px"
	 viewBox="0 0 100 100" style="enable-background:new 0 0 100 100;" xml:space="preserve">
<path d="M6.66,44.73c0,0,43.7-17.93,58.85-24.25c5.81-2.53,25.51-10.61,25.51-10.61s9.09-3.54,8.34,5.05
	c-0.25,3.54-2.27,15.91-4.29,29.3c-3.03,18.94-6.32,39.66-6.32,39.66s-0.51,5.81-4.8,6.82c-4.29,1.01-11.37-3.54-12.63-4.55
	c-1.01-0.76-18.94-12.12-25.51-17.68c-1.77-1.52-3.79-4.55,0.25-8.08c9.09-8.34,19.96-18.69,26.52-25.26
	c3.03-3.03,6.06-10.1-6.57-1.52c-17.93,12.38-35.62,24-35.62,24s-4.04,2.53-11.62,0.25c-7.58-2.27-16.42-5.3-16.42-5.3
	S-3.7,48.77,6.66,44.73L6.66,44.73z"/>
</svg>
