<?xml version="1.0" encoding="utf-8"?>
<!-- Generator: Adobe Illustrator 27.0.0, SVG Export Plug-In . SVG Version: 6.00 Build 0)  -->
<svg version="1.1" id="Layer_1" xmlns="http://www.w3.org/2000/svg" xmlns:xlink="http://www.w3.org/1999/xlink" x="0px" y="0px"
	 viewBox="0 0 100 100" style="enable-background:new 0 0 100 100;" xml:space="preserve">
<path d="M50,0.5C22.66,0.5,0.5,22.66,0.5,50S22.66,99.5,50,99.5c27.34,0,49.5-22.16,49.5-49.5S77.34,0.5,50,0.5z M82.55,29.8
	c0,0.17,0,0.57-0.34,1.03c-1.51,2.04-3.15,3.86-5.17,5.38c-0.29,0.22-0.79,0.45-0.79,0.87c0,10.69-2.73,21.36-10.52,29.11
	c-9.92,9.86-24.81,12.54-38.02,8.89c-2.56-0.71-5.01-1.7-7.35-2.94c-0.78-0.42-1.54-0.86-2.29-1.36c-0.19-0.15-0.33-0.29-0.17-0.4
	c0.16-0.08,0.28-0.09,0.88,0c3.7,0.36,7.5-0.19,11-1.41c1.92-0.67,6.05-2.02,7.24-3.84c0.03-0.04,0.06-0.04,0.09-0.09
	c-0.48-0.11-0.96-0.11-1.44-0.2c-3.59-1.03-8.38-2.83-10.61-8.88c-0.14-0.35,0-0.54,0.37-0.47c2.96,0.23,4.02,0.07,5.05-0.16
	c-0.58-0.1-1.17-0.3-1.71-0.52c-4.52-1.72-7.83-6.13-8.43-10.9c-0.07-0.55-0.11-1.02-0.08-1.53c0.03-0.35,0.18-0.47,0.5-0.27
	c2.33,1.2,4.94,1.49,5.15,1.44c-0.58-0.45-1.12-0.95-1.64-1.44c-3.92-3.71-5.44-11.27-2.3-15.98c0.26-0.38,0.42-0.38,0.74-0.03
	c7.17,8.17,16.01,11.99,26.67,13.57c0.28,0.04,0.31,0,0.27-0.31c-0.28-1.88-0.31-3.72,0.14-5.57c0.47-1.93,1.39-3.74,2.64-5.28
	c1.2-1.49,2.72-2.72,4.41-3.6c1.69-0.88,3.56-1.42,5.47-1.55c1.96-0.13,3.95,0.19,5.77,0.93c1.39,0.56,2.61,1.33,3.76,2.3
	c0.24,0.2,0.45,0.44,0.68,0.69c0.14,0.14,0.31,0.2,0.53,0.14c2.73-0.68,5.29-1.64,7.76-2.97c0.11-0.06,0.2-0.09,0.35-0.03
	c0.11,0.09,0.07,0.23,0.01,0.34c-0.44,1.45-1.23,2.79-2.17,3.96c-0.62,0.77-2.17,2.68-3.22,2.85c2.22-0.37,4.49-0.94,6.55-1.87
	c0.26-0.12,0.27-0.17,0.27,0C82.55,29.75,82.55,29.77,82.55,29.8z"/>
</svg>
