<?xml version="1.0" encoding="utf-8"?>
<!-- Generator: Adobe Illustrator 27.0.0, SVG Export Plug-In . SVG Version: 6.00 Build 0)  -->
<svg version="1.1" id="Layer_1" xmlns="http://www.w3.org/2000/svg" xmlns:xlink="http://www.w3.org/1999/xlink" x="0px" y="0px"
	 viewBox="0 0 100 100" style="enable-background:new 0 0 100 100;" xml:space="preserve">
<path d="M99.09,19.03c-3.14,1.42-6.62,2.29-10.01,2.85c1.61-0.27,3.97-3.19,4.92-4.36c1.45-1.8,2.65-3.85,3.32-6.06
	c0.09-0.17,0.15-0.39-0.02-0.52c-0.22-0.09-0.36-0.04-0.53,0.04c-3.79,2.03-7.7,3.5-11.87,4.54c-0.35,0.09-0.6,0-0.82-0.22
	c-0.35-0.39-0.67-0.76-1.04-1.06c-1.75-1.49-3.63-2.66-5.75-3.52c-2.78-1.13-5.82-1.61-8.82-1.42c-2.92,0.19-5.78,1.01-8.37,2.36
	c-2.59,1.35-4.91,3.24-6.75,5.51c-1.91,2.35-3.31,5.13-4.03,8.07c-0.69,2.84-0.64,5.65-0.21,8.52c0.06,0.48,0.02,0.54-0.41,0.48
	c-16.3-2.43-29.82-8.26-40.79-20.76c-0.48-0.54-0.73-0.54-1.12,0.04c-4.8,7.2-2.47,18.76,3.53,24.44c0.8,0.76,1.62,1.52,2.51,2.21
	c-0.32,0.07-4.31-0.37-7.87-2.21c-0.48-0.3-0.72-0.13-0.76,0.41c-0.04,0.78,0.02,1.49,0.13,2.34c0.92,7.29,5.97,14.04,12.89,16.67
	c0.82,0.35,1.73,0.65,2.62,0.8c-1.58,0.35-3.2,0.59-7.72,0.24c-0.56-0.11-0.78,0.17-0.56,0.71c3.4,9.26,10.73,12.01,16.22,13.58
	c0.74,0.13,1.47,0.13,2.21,0.3c-0.04,0.07-0.09,0.07-0.13,0.13c-1.82,2.78-8.13,4.84-11.08,5.87C13.42,80.9,7.6,81.74,1.95,81.18
	c-0.9-0.13-1.09-0.12-1.34,0c-0.25,0.15-0.03,0.37,0.26,0.6c1.15,0.76,2.31,1.43,3.5,2.08c3.59,1.9,7.33,3.42,11.25,4.5
	c20.21,5.58,42.97,1.48,58.15-13.6C85.68,62.92,89.86,46.6,89.86,30.25c0-0.64,0.76-0.99,1.21-1.33c3.1-2.33,5.6-5.12,7.91-8.23
	c0.52-0.7,0.52-1.32,0.52-1.58c0-0.04,0-0.09,0-0.09C99.5,18.76,99.49,18.84,99.09,19.03z"/>
</svg>
