<?xml version="1.0" encoding="utf-8"?>
<!-- Generator: Adobe Illustrator 27.0.0, SVG Export Plug-In . SVG Version: 6.00 Build 0)  -->
<svg version="1.1" id="Layer_1" xmlns="http://www.w3.org/2000/svg" xmlns:xlink="http://www.w3.org/1999/xlink" x="0px" y="0px"
	 viewBox="0 0 100 100" style="enable-background:new 0 0 100 100;" xml:space="preserve">
<style type="text/css">
	.st0{fill-rule:evenodd;clip-rule:evenodd;}
</style>
<g>
	<path d="M0.62,99.5l7.1-26.48C3.7,65.77,1.59,57.64,1.59,49.4c0-26.96,21.94-48.9,48.9-48.9c26.96,0,48.9,21.94,48.9,48.9
		c0,26.96-21.94,48.9-48.9,48.9c-8.09,0-16.09-2.04-23.24-5.92L0.62,99.5z M28.56,82.45l1.68,1c6.15,3.67,13.15,5.61,20.24,5.61
		c21.86,0,39.65-17.79,39.65-39.65c0-21.87-17.79-39.65-39.65-39.65c-21.86,0-39.65,17.79-39.65,39.65c0,7.22,2.01,14.33,5.8,20.56
		l1.03,1.69l-3.96,14.79L28.56,82.45z"/>
	<path class="st0" d="M68.67,56.2c-2.01-1.2-4.63-2.55-7-1.58c-1.82,0.74-2.98,3.59-4.16,5.05c-0.6,0.75-1.33,0.86-2.26,0.49
		c-6.83-2.72-12.06-7.28-15.83-13.56c-0.64-0.98-0.52-1.75,0.25-2.65c1.14-1.34,2.57-2.86,2.88-4.67c0.31-1.81-0.54-3.92-1.29-5.53
		c-0.95-2.05-2.02-4.99-4.08-6.15c-1.89-1.07-4.39-0.47-6.07,0.9c-2.91,2.37-4.31,6.08-4.27,9.76c0.01,1.05,0.14,2.09,0.38,3.1
		c0.59,2.43,1.71,4.69,2.97,6.85c0.95,1.63,1.99,3.2,3.1,4.72c3.65,4.96,8.2,9.27,13.46,12.49c2.63,1.61,5.46,3.02,8.39,3.99
		c3.29,1.09,6.22,2.22,9.77,1.54c3.72-0.71,7.38-3.01,8.86-6.59c0.44-1.06,0.65-2.24,0.41-3.36C73.68,58.69,70.54,57.32,68.67,56.2z
		"/>
</g>
</svg>
