<?xml version="1.0" encoding="utf-8"?>
<!-- Generator: Adobe Illustrator 27.0.0, SVG Export Plug-In . SVG Version: 6.00 Build 0)  -->
<svg version="1.1" id="Layer_1" xmlns="http://www.w3.org/2000/svg" xmlns:xlink="http://www.w3.org/1999/xlink" x="0px" y="0px"
	 viewBox="0 0 100 100" style="enable-background:new 0 0 100 100;" xml:space="preserve">
<g>
	<path d="M51.02,24.36c-13.12,0-23.79,10.67-23.79,23.79c0,4.33,1.2,8.6,3.48,12.33l0.62,1.01l-2.38,8.87l8.92-2.39l1.01,0.6
		c3.69,2.2,7.89,3.36,12.14,3.36c13.12,0,23.79-10.67,23.79-23.79C74.81,35.03,64.14,24.36,51.02,24.36z M65,57.14
		c-0.89,2.15-3.08,3.53-5.31,3.95c-2.13,0.4-3.89-0.27-5.86-0.93c-1.76-0.58-3.46-1.43-5.03-2.39c-3.16-1.93-5.88-4.52-8.07-7.5
		c-0.67-0.91-1.29-1.86-1.86-2.83c-0.76-1.29-1.43-2.65-1.78-4.11c-0.15-0.61-0.22-1.23-0.23-1.86c-0.03-2.21,0.82-4.43,2.56-5.86
		c1.01-0.82,2.51-1.18,3.64-0.54c1.23,0.7,1.87,2.46,2.45,3.69c0.45,0.96,0.96,2.23,0.77,3.31c-0.18,1.08-1.04,2-1.73,2.8
		c-0.46,0.54-0.53,1-0.15,1.59c2.26,3.77,5.4,6.5,9.5,8.13c0.56,0.22,0.99,0.15,1.35-0.29c0.71-0.87,1.4-2.58,2.49-3.03
		c1.42-0.58,2.99,0.22,4.2,0.95c1.12,0.67,3,1.5,3.31,2.89C65.39,55.79,65.26,56.5,65,57.14z"/>
	<path d="M50,0.61C22.72,0.61,0.61,22.72,0.61,50S22.72,99.39,50,99.39c27.28,0,49.39-22.11,49.39-49.39S77.28,0.61,50,0.61z
		 M51.02,77.49c-4.86,0-9.65-1.23-13.94-3.55l-15.97,4.28l4.26-15.89c-2.41-4.35-3.68-9.22-3.68-14.17
		c0-16.17,13.16-29.33,29.33-29.33c16.17,0,29.33,13.16,29.33,29.33C80.36,64.33,67.2,77.49,51.02,77.49z"/>
</g>
</svg>
